<svg xmlns="http://www.w3.org/2000/svg" width="32" height="32" viewBox="0 0 32 32">
  <defs>
    <linearGradient id="bg" x1="0" y1="0" x2="0" y2="1">
      <stop offset="0" stop-color="#223524"/>
      <stop offset="1" stop-color="#0e1410"/>
    </linearGradient>
    <radialGradient id="cap" cx="0.4" cy="0.3" r="0.9">
      <stop offset="0" stop-color="#e8552f"/>
      <stop offset="1" stop-color="#a52c19"/>
    </radialGradient>
  </defs>
  <rect width="32" height="32" rx="7" fill="url(#bg)"/>
  <!-- stem -->
  <path d="M13 15h6v7a3 3 0 0 1-6 0z" fill="#f1e6cb"/>
  <path d="M13 15h6v2.4c-1.8 1-4.2 1-6 0z" fill="#d9c79f"/>
  <!-- cap -->
  <path d="M5.5 16.6C5.5 10 10.2 6.4 16 6.4S26.5 10 26.5 16.6c0 .9-.8 1.5-1.7 1.5H7.2c-.9 0-1.7-.6-1.7-1.5Z" fill="url(#cap)"/>
  <!-- spots -->
  <circle cx="12" cy="12" r="1.5" fill="#fbf3df"/>
  <circle cx="18.6" cy="10.8" r="2" fill="#fbf3df"/>
  <circle cx="20.8" cy="14.6" r="1.2" fill="#fbf3df"/>
  <circle cx="14.4" cy="15.1" r="1" fill="#fbf3df"/>
  <!-- a little candle spark -->
  <circle cx="16" cy="4.6" r="1.1" fill="#ffe9a8"/>
</svg>
